<svg width="79" height="29" viewBox="0 0 79 29" fill="none" xmlns="http://www.w3.org/2000/svg">
<path d="M15.8226 21.8095H21.5507L13.4143 0H8.11389L-0.0224609 21.8095H5.73938L7.20235 17.5444H14.3034L15.8001 21.8095H15.8226ZM8.81161 12.9304L10.7697 7.25857L12.7279 12.9304H8.80036H8.81161ZM73.0809 15.0798H77.1885L78.1901 0H72.0568L73.0809 15.0798ZM23.0137 14.112H35.6965L36.5405 9.74562H23.8577L23.0137 14.112ZM48.4693 6.1107L43.8553 14.6184L42.8875 6.1107H37.6884L40.2767 21.2468L36.5067 28.1678H41.7396L53.7022 6.1107H48.4693ZM60.0943 22.0571C65.541 22.0571 69.8174 17.972 69.5923 12.5815C69.4685 8.81157 66.3513 5.85187 62.0862 5.85187C56.6394 5.85187 52.363 9.93693 52.5881 15.3274C52.7119 19.0974 55.8292 22.0571 60.0943 22.0571ZM60.5669 17.6907C58.8564 17.6907 57.7648 16.5428 57.7648 14.6972C57.7648 12.424 59.2277 10.207 61.6248 10.207C63.3353 10.207 64.4269 11.3549 64.4269 13.2005C64.4269 15.4737 62.9639 17.6907 60.5669 17.6907Z" fill="$col-white"/>
</svg>
