<svg width="25" height="15" viewBox="0 0 25 15" fill="none" xmlns="http://www.w3.org/2000/svg">
<path d="M22.1895 2H15.1895V0H22.1895V2ZM23.9155 12C23.4735 13.297 21.8865 15 18.8145 15C15.7405 15 13.2505 13.271 13.2505 9.325C13.2505 5.415 15.5755 3.405 18.7165 3.405C21.7985 3.405 23.6805 5.187 24.0915 7.831C24.1695 8.337 24.2005 9.019 24.1865 9.971H16.1595C16.2895 13.182 19.6425 13.283 20.7475 12H23.9155ZM16.2295 8H21.1945C21.0895 6.453 20.0585 5.781 18.7175 5.781C17.2515 5.781 16.4405 6.549 16.2295 8ZM6.65545 14.988H0.189453V0.0209999H7.14245C12.6185 0.102 12.7225 5.465 9.86245 6.927C13.3235 8.187 13.4395 14.988 6.65545 14.988ZM3.18945 6H6.77345C9.28145 6 9.67945 3 6.46145 3H3.18945V6ZM6.58045 9H3.18945V12.016H6.53045C9.58545 12.016 9.39845 9 6.58045 9Z" fill="$col-white"/>
</svg>
