<svg width="15" height="15" viewBox="0 0 15 15" fill="none" xmlns="http://www.w3.org/2000/svg">
<g clip-path="url(#clip0_1050_65)">
<path d="M7.5 6.75C8.49456 6.75 9.44839 7.14509 10.1517 7.84835C10.8549 8.55161 11.25 9.50544 11.25 10.5V15H3.75V10.5C3.75 9.50544 4.14509 8.55161 4.84835 7.84835C5.55161 7.14509 6.50544 6.75 7.5 6.75ZM2.466 9.0045C2.34664 9.40709 2.27614 9.82257 2.256 10.242L2.25 10.5V15H6.84877e-08V11.625C-0.000147605 10.9782 0.238521 10.3541 0.670226 9.87241C1.10193 9.39074 1.69627 9.08541 2.33925 9.015L2.46675 9.0045H2.466ZM12.534 9.0045C13.2014 9.04518 13.8282 9.33897 14.2864 9.82593C14.7447 10.3129 14.9999 10.9563 15 11.625V15H12.75V10.5C12.75 9.98025 12.675 9.4785 12.534 9.0045ZM2.625 4.5C3.12228 4.5 3.59919 4.69754 3.95083 5.04917C4.30246 5.40081 4.5 5.87772 4.5 6.375C4.5 6.87228 4.30246 7.34919 3.95083 7.70083C3.59919 8.05246 3.12228 8.25 2.625 8.25C2.12772 8.25 1.65081 8.05246 1.29917 7.70083C0.947544 7.34919 0.75 6.87228 0.75 6.375C0.75 5.87772 0.947544 5.40081 1.29917 5.04917C1.65081 4.69754 2.12772 4.5 2.625 4.5ZM12.375 4.5C12.8723 4.5 13.3492 4.69754 13.7008 5.04917C14.0525 5.40081 14.25 5.87772 14.25 6.375C14.25 6.87228 14.0525 7.34919 13.7008 7.70083C13.3492 8.05246 12.8723 8.25 12.375 8.25C11.8777 8.25 11.4008 8.05246 11.0492 7.70083C10.6975 7.34919 10.5 6.87228 10.5 6.375C10.5 5.87772 10.6975 5.40081 11.0492 5.04917C11.4008 4.69754 11.8777 4.5 12.375 4.5ZM7.5 0C8.29565 0 9.05871 0.316071 9.62132 0.87868C10.1839 1.44129 10.5 2.20435 10.5 3C10.5 3.79565 10.1839 4.55871 9.62132 5.12132C9.05871 5.68393 8.29565 6 7.5 6C6.70435 6 5.94129 5.68393 5.37868 5.12132C4.81607 4.55871 4.5 3.79565 4.5 3C4.5 2.20435 4.81607 1.44129 5.37868 0.87868C5.94129 0.316071 6.70435 0 7.5 0Z" fill="#292A73"/>
</g>
<defs>
<clipPath id="clip0_1050_65">
<rect width="15" height="15" fill="white"/>
</clipPath>
</defs>
</svg>
