<svg width="48" height="62" viewBox="0 0 48 62" fill="none" xmlns="http://www.w3.org/2000/svg">
<path d="M36.4718 42.4526H11.5281C9.18002 42.4526 7.27637 43.3166 7.27637 44.3823C7.27637 45.448 9.18002 46.3119 11.5281 46.3119H36.4718C38.8199 46.3119 40.7236 45.448 40.7236 44.3823C40.7236 43.3166 38.8199 42.4526 36.4718 42.4526Z" fill="#1A1B4B"/>
<path d="M36.4718 28.3008H11.5281C9.18002 28.3008 7.27637 29.1647 7.27637 30.2304C7.27637 31.2961 9.18002 32.1601 11.5281 32.1601H36.4718C38.8199 32.1601 40.7236 31.2961 40.7236 30.2304C40.7236 29.1647 38.8199 28.3008 36.4718 28.3008Z" fill="#1A1B4B"/>
<path d="M41.2462 6.20478V5.42714C41.2462 2.43461 38.8116 0 35.8191 0H12.1809C9.18838 0 6.75377 2.43461 6.75377 5.42714V6.20478C2.85552 7.22557 0 10.7873 0 14.9548V52.7035C0 57.6911 4.05769 61.7487 9.04523 61.7487H38.9548C43.9423 61.7487 48 57.6911 48 52.7035V14.9548C48 10.7873 45.1445 7.22557 41.2462 6.20478ZM10.3719 5.42714C10.3719 4.42963 11.1834 3.61809 12.1809 3.61809H35.8191C36.8166 3.61809 37.6281 4.42963 37.6281 5.42714V9.88945C37.6281 10.887 36.8166 11.6985 35.8191 11.6985H12.1809C11.1834 11.6985 10.3719 10.887 10.3719 9.88945V5.42714ZM44.3819 52.7035C44.3819 55.696 41.9473 58.1306 38.9548 58.1306H9.04523C6.0527 58.1306 3.61809 55.696 3.61809 52.7035V14.9548C3.61809 12.7922 4.89926 10.9024 6.75751 10.0348C6.83493 12.9602 9.23711 15.3166 12.1809 15.3166H35.8191C38.7629 15.3166 41.1651 12.9602 41.2425 10.0348C43.1007 10.9024 44.3819 12.7922 44.3819 14.9548V52.7035Z" fill="#1A1B4B"/>
</svg>
