<svg width="21" height="20" viewBox="0 0 21 20" fill="none" xmlns="http://www.w3.org/2000/svg">
<path fill-rule="evenodd" clip-rule="evenodd" d="M7.61845 6.969H11.3325V8.819C11.8675 7.755 13.2395 6.799 15.3005 6.799C19.2515 6.799 20.1895 8.917 20.1895 12.803V20H16.1895V13.688C16.1895 11.475 15.6545 10.227 14.2925 10.227C12.4035 10.227 11.6185 11.572 11.6185 13.687V20H7.61845V6.969ZM0.759453 19.83H4.75945V6.799H0.759453V19.83ZM5.33245 2.55C5.3326 2.88528 5.26611 3.21724 5.13684 3.52659C5.00757 3.83594 4.81811 4.11651 4.57945 4.352C4.09585 4.83262 3.44126 5.10165 2.75945 5.1C2.07884 5.09954 1.42576 4.8312 0.941453 4.353C0.703665 4.11671 0.514839 3.83582 0.385797 3.52643C0.256755 3.21704 0.190032 2.88522 0.189453 2.55C0.189453 1.873 0.459453 1.225 0.942453 0.747C1.42634 0.268158 2.07969 -0.000299211 2.76045 2.50265e-07C3.44245 2.50265e-07 4.09645 0.269 4.57945 0.747C5.06145 1.225 5.33245 1.873 5.33245 2.55Z" fill="$col-white"/>
</svg>