<svg width="54" height="54" viewBox="0 0 54 54" fill="none" xmlns="http://www.w3.org/2000/svg">
<path d="M2 2H23.2834V23.2834H2V2Z" stroke="black" stroke-width="4"/>
<path d="M30.0166 2H51.3001V23.2834H30.0166V2Z" stroke="black" stroke-width="4"/>
<path d="M2 30.0165H23.2834V51.3H2V30.0165Z" stroke="black" stroke-width="4"/>
<mask id="path-4-inside-1_324_5" fill="white">
<path d="M53.3001 40.6583C53.3001 47.6399 47.6402 53.3 40.6583 53.3C33.6762 53.3 28.0166 47.6401 28.0166 40.6583C28.0166 33.6761 33.6765 28.0165 40.6583 28.0165C47.6399 28.0165 53.3001 33.6764 53.3001 40.6583Z"/>
</mask>
<path d="M49.3001 40.6583C49.3001 45.4308 45.431 49.3 40.6583 49.3V57.3C49.8494 57.3 57.3001 49.849 57.3001 40.6583H49.3001ZM40.6583 49.3C35.8854 49.3 32.0166 45.431 32.0166 40.6583H24.0166C24.0166 49.8492 31.467 57.3 40.6583 57.3V49.3ZM32.0166 40.6583C32.0166 35.8853 35.8855 32.0165 40.6583 32.0165V24.0165C31.4674 24.0165 24.0166 31.467 24.0166 40.6583H32.0166ZM40.6583 32.0165C45.4309 32.0165 49.3001 35.8856 49.3001 40.6583H57.3001C57.3001 31.4672 49.849 24.0165 40.6583 24.0165V32.0165Z" fill="black" mask="url(#path-4-inside-1_324_5)"/>
</svg>
