<svg width="23" height="20" viewBox="0 0 23 20" fill="none" xmlns="http://www.w3.org/2000/svg">
<path d="M22.832 2.93699C21.997 3.30699 21.1 3.55699 20.157 3.66999C21.13 3.08778 21.8579 2.17145 22.205 1.09199C21.2908 1.63497 20.2903 2.01718 19.247 2.22199C18.5454 1.47285 17.616 0.976312 16.6033 0.809459C15.5906 0.642607 14.5511 0.814777 13.6462 1.29924C12.7414 1.7837 12.0218 2.55335 11.5991 3.48869C11.1765 4.42403 11.0745 5.47274 11.309 6.47199C9.45666 6.37898 7.6446 5.89753 5.9904 5.05889C4.3362 4.22025 2.87682 3.04315 1.70698 1.60399C1.30698 2.29399 1.07698 3.09399 1.07698 3.94599C1.07653 4.71298 1.26541 5.46823 1.62686 6.14472C1.9883 6.82121 2.51114 7.39802 3.14898 7.82399C2.40925 7.80045 1.68585 7.60057 1.03898 7.24099V7.30098C1.0389 8.37673 1.41101 9.41936 2.09216 10.252C2.77331 11.0846 3.72155 11.6559 4.77598 11.869C4.08976 12.0547 3.37031 12.0821 2.67198 11.949C2.96947 12.8746 3.54897 13.684 4.32934 14.2639C5.10972 14.8438 6.05189 15.1652 7.02398 15.183C5.37381 16.4784 3.33586 17.1811 1.23798 17.178C0.866358 17.1781 0.495053 17.1564 0.125977 17.113C2.25545 18.4822 4.73432 19.2088 7.26598 19.206C15.836 19.206 20.521 12.108 20.521 5.95199C20.521 5.75199 20.516 5.54998 20.507 5.34999C21.4183 4.69096 22.2049 3.87488 22.83 2.93999L22.832 2.93699Z" fill="$col-white"/>
</svg>