<svg width="144" height="144" viewBox="0 0 144 144" fill="none" xmlns="http://www.w3.org/2000/svg">
<g clip-path="url(#clip0_360_78)">
<circle cx="72" cy="72" r="72" fill="#000080"/>
<path d="M30.352 85H34.48L42.64 62.6H38.416L32.4 79.784L26.448 62.6H22.192L30.352 85ZM44.4438 61.96V66.344H48.6678V61.96H44.4438ZM44.6038 85H48.5398V68.872H44.6038V85ZM63.1765 79.624C62.7605 81.16 61.4485 81.992 59.4325 81.992C56.9365 81.992 55.2725 80.328 54.9845 77.736H66.8885C66.9205 77.416 66.9525 76.936 66.9525 76.392C66.9525 72.552 64.5205 68.616 59.1125 68.616C53.8325 68.616 51.2085 72.616 51.2085 76.872C51.2085 81.096 54.1525 85.256 59.4325 85.256C63.4005 85.256 66.4085 83.048 67.0165 79.624H63.1765ZM59.1125 71.56C61.4485 71.56 62.8565 73.096 63.0165 75.144H55.0805C55.4965 72.712 56.9045 71.56 59.1125 71.56ZM72.8805 85H76.3365L79.6005 74.152L82.8325 85H86.3205L91.4405 68.872H87.5365L84.5605 79.656L81.3925 68.872H77.7765L74.6085 79.656L71.6645 68.872H67.7285L72.8805 85ZM111.516 67.272L109.436 69.384L114.94 74.856H99.9318V78.216H114.908L109.468 83.688L111.548 85.768L120.796 76.52L111.516 67.272Z" fill="white"/>
</g>
<defs>
<clipPath id="clip0_360_78">
<rect width="144" height="144" fill="white"/>
</clipPath>
</defs>
</svg>
